<svg xmlns="http://www.w3.org/2000/svg" width="28" height="28" viewBox="0 0 28 28">
  <path id="빼기_1" data-name="빼기 1" d="M14-1173a13.909,13.909,0,0,1-9.9-4.1A13.909,13.909,0,0,1,0-1187a13.908,13.908,0,0,1,4.1-9.9A13.909,13.909,0,0,1,14-1201a13.908,13.908,0,0,1,9.9,4.1A13.908,13.908,0,0,1,28-1187a13.909,13.909,0,0,1-4.1,9.9A13.907,13.907,0,0,1,14-1173Zm.319-12.056h0l2.8,4.5h3.408l-4.336-6.673,4.192-6.368H17.072l-2.7,4.256-2.623-4.256H8.288l4.176,6.464-4.32,6.576h3.312l2.863-4.5Z" transform="translate(0 1201)" fill="#6a6a6a"/>
</svg>
