<?xml version="1.0" encoding="utf-8"?>
<!-- Generator: Adobe Illustrator 27.9.1, SVG Export Plug-In . SVG Version: 6.00 Build 0)  -->
<svg version="1.1" id="Layer_1" xmlns="http://www.w3.org/2000/svg" xmlns:xlink="http://www.w3.org/1999/xlink" x="0px" y="0px"
	 viewBox="0 0 100 100" style="enable-background:new 0 0 100 100;" xml:space="preserve">
<style type="text/css">
	.st0{fill:#3C3C3C;}
	.st1{fill:#04E632;}
</style>
<g>
	<path class="st0" d="M49.5,0c-27.6,0-50,22.4-50,50c0,27.6,22.4,50,50,50s50-22.4,50-50C99.5,22.4,77.1,0,49.5,0z M75.3,51.2
		c-0.2,0.4-0.5,0.7-0.9,0.9L40.1,72c-1.1,0.7-2.6,0.3-3.3-0.9c-0.2-0.4-0.3-0.8-0.3-1.2V30.2c0-1.3,1.1-2.4,2.4-2.4
		c0.4,0,0.8,0.1,1.2,0.3L74.4,48C75.6,48.6,76,50.1,75.3,51.2z"/>
	<path class="st1" d="M74.4,48L40.1,28.1c-0.4-0.2-0.8-0.3-1.2-0.3c-1.3,0-2.4,1.1-2.4,2.4v39.7c0,0.4,0.1,0.8,0.3,1.2
		c0.7,1.1,2.1,1.5,3.3,0.9l34.3-19.9c0.4-0.2,0.7-0.5,0.9-0.9C76,50.1,75.6,48.6,74.4,48z"/>
</g>
</svg>
