<svg id="그룹_12" data-name="그룹 12" xmlns="http://www.w3.org/2000/svg" xmlns:xlink="http://www.w3.org/1999/xlink" width="45" height="45.625" viewBox="0 0 45 45.625">
  <defs>
    <clipPath id="clip-path">
      <rect id="사각형_11" data-name="사각형 11" width="45" height="45.625" fill="#fafafa"/>
    </clipPath>
  </defs>
  <g id="그룹_11" data-name="그룹 11" clip-path="url(#clip-path)">
    <path id="패스_14" data-name="패스 14" d="M20.614.84.651,20.131A2.537,2.537,0,0,0,0,21.828V43.088a2.538,2.538,0,0,0,2.537,2.537H16.866A2.538,2.538,0,0,0,19.4,43.088v-9.7a3.191,3.191,0,0,1,3.015-3.239,3.1,3.1,0,0,1,3.178,3.1v9.848a2.538,2.538,0,0,0,2.537,2.537H42.462A2.538,2.538,0,0,0,45,43.088V21.828a2.537,2.537,0,0,0-.651-1.7L24.386.84a2.537,2.537,0,0,0-3.772,0" transform="translate(0 0)" fill="#fafafa"/>
  </g>
</svg>
