<svg id="그룹_2" data-name="그룹 2" xmlns="http://www.w3.org/2000/svg" xmlns:xlink="http://www.w3.org/1999/xlink" width="155.941" height="41" viewBox="0 0 155.941 41">
  <defs>
    <clipPath id="clip-path">
      <rect id="사각형_6" data-name="사각형 6" width="155.941" height="41" fill="none"/>
    </clipPath>
  </defs>
  <g id="그룹_1" data-name="그룹 1" clip-path="url(#clip-path)">
    <path id="패스_1" data-name="패스 1" d="M19.658,27.2c.094-.172.163-.29.224-.412q2.556-5.093,5.11-10.187c1.5-2.984,2.982-5.975,4.506-8.947a9.653,9.653,0,0,1,1.231-1.847,4.9,4.9,0,0,1,4-1.58A4.677,4.677,0,0,1,38.951,8.1a22.486,22.486,0,0,1,.207,2.873q.022,14.645.009,29.291a4.126,4.126,0,0,1-8.171.9,4.649,4.649,0,0,1-.068-.828q-.006-9.247,0-18.494v-.432l-.092-.022c-.07.124-.146.245-.21.373q-2.387,4.754-4.772,9.509c-.53,1.057-1.05,2.118-1.579,3.175a5.163,5.163,0,0,1-3.79,2.976,4.613,4.613,0,0,1-5.091-2.167c-.648-1.01-1.164-2.108-1.712-3.18q-2.6-5.091-5.189-10.192a.549.549,0,0,0-.246-.255v.418q0,9.125,0,18.25a4.052,4.052,0,0,1-3.405,4.134A4.058,4.058,0,0,1,.061,41,7.073,7.073,0,0,1,0,40.134Q0,24.5,0,8.858A4.842,4.842,0,0,1,3.971,4.01,5.006,5.006,0,0,1,9.056,6.381c1.535,3.144,3.162,6.243,4.749,9.362Q16.642,21.32,19.477,26.9c.041.081.094.157.181.3" transform="translate(0 -3.668)" fill="#04e632"/>
    <path id="패스_2" data-name="패스 2" d="M669.629,189.26a6.017,6.017,0,0,0,4.044,4.894,7.1,7.1,0,0,0,7.479-1.486,3.948,3.948,0,0,1,4.26-.32,3.453,3.453,0,0,1,1.858,3.458,4.308,4.308,0,0,1-1.89,2.958,14.282,14.282,0,0,1-7.248,2.837,17.061,17.061,0,0,1-9.218-1.4,11.893,11.893,0,0,1-5.35-5.148,15.019,15.019,0,0,1-2-6.413,14.658,14.658,0,0,1,4.838-12.433,12.9,12.9,0,0,1,6.358-3.1,13.11,13.11,0,0,1,8.151.881,12.1,12.1,0,0,1,6.322,6.232,10.913,10.913,0,0,1,1.083,5.323,3.933,3.933,0,0,1-2.173,3.482,2.34,2.34,0,0,1-1,.227q-7.5.021-15.009.01Zm5.412-5.14c1.554,0,3.109,0,4.663,0,.277,0,.408-.066.362-.376a4.266,4.266,0,0,0-2.059-3.146,5.617,5.617,0,0,0-4.054-.668,4.437,4.437,0,0,0-3.82,3.752c-.048.433-.069.434.384.434q2.262,0,4.524,0" transform="translate(-615.438 -160.785)" fill="#04e632"/>
    <path id="패스_3" data-name="패스 3" d="M1385.355,186.7a14.524,14.524,0,1,1-14.129-14.5,14.5,14.5,0,0,1,14.129,14.5m-8.037.406a8.048,8.048,0,0,0-1.267-4.642,6.11,6.11,0,0,0-9.4-1.23,7.636,7.636,0,0,0-.047,10.878,5.967,5.967,0,0,0,7.54.711,7.039,7.039,0,0,0,3.178-5.717" transform="translate(-1261.829 -160.198)" fill="#04e632"/>
    <path id="패스_4" data-name="패스 4" d="M1879.763,182.083a6.8,6.8,0,0,1,4.215-2.64,12.2,12.2,0,0,1,8.142,1.036,9.6,9.6,0,0,1,4.693,5.712,13.358,13.358,0,0,1,.727,4.467c-.016,4.353-.017,8.705-.029,13.058a3.977,3.977,0,0,1-7.863.8,3.549,3.549,0,0,1-.051-.726c0-4.1,0-8.195-.01-12.292a8.058,8.058,0,0,0-.177-1.546,4.807,4.807,0,0,0-9.425.4,6.376,6.376,0,0,0-.068,1c0,4.132-.038,8.265.014,12.4a3.967,3.967,0,0,1-7.934-.138q0-10.046,0-20.093a3.969,3.969,0,0,1,4.412-3.98,3.606,3.606,0,0,1,3.042,2.081,3.6,3.6,0,0,0,.31.458" transform="translate(-1741.599 -166.688)" fill="#04e632"/>
    <path id="패스_5" data-name="패스 5" d="M1152.77,31.51c0,5.329.008,10.657,0,15.986a4.116,4.116,0,0,1-3.18,3.943,3.786,3.786,0,0,1-4.029-1.9,4.524,4.524,0,0,1-.613-2.289q0-15.742,0-31.484a4.191,4.191,0,0,1,1.818-3.61,3.721,3.721,0,0,1,5.395,1.295,4.278,4.278,0,0,1,.611,2.182q0,7.941,0,15.881Z" transform="translate(-1065.187 -10.682)" fill="#04e632"/>
    <path id="패스_6" data-name="패스 6" d="M1665.782,5.413a5.386,5.386,0,1,1-10.77-.177,5.386,5.386,0,0,1,10.77.177" transform="translate(-1539.727 0)" fill="#04e632"/>
  </g>
</svg>
