<svg xmlns="http://www.w3.org/2000/svg" xmlns:xlink="http://www.w3.org/1999/xlink" width="50" height="50" viewBox="0 0 57.163 57.163">
  <defs>
    <clipPath id="clip-path">
      <rect id="사각형_25" data-name="사각형 25" width="57.163" height="57.163" fill="none"/>
    </clipPath>
  </defs>
  <g id="그룹_32" data-name="그룹 32" transform="translate(0 0)">
    <g id="그룹_31" data-name="그룹 31" transform="translate(0 0)" clip-path="url(#clip-path)">
      <path id="패스_22" data-name="패스 22" d="M15.534,0a8.1,8.1,0,1,0,8.1,8.1,8.1,8.1,0,0,0-8.1-8.1" transform="translate(33.529 0)" fill="#04e632"/>
      <path id="패스_23" data-name="패스 23" d="M23.049,2.006A23.052,23.052,0,1,0,46.1,25.061,23.052,23.052,0,0,0,23.049,2.006m0,32.4a9.345,9.345,0,1,1,9.345-9.345,9.343,9.343,0,0,1-9.345,9.345" transform="translate(0 9.047)" fill="#04e632"/>
    </g>
  </g>
</svg>
